C:\Users\r0593348\3dpredictsim\Results\batch_windlass\Pog_s1_tmt_bCst_d00_k1500_WL40_ig24_act_TTC_GRF.mot
nRows=15
nColumns=19

name C:\Users\r0593348\3dpredictsim\Results\batch_windlass\Pog_s1_tmt_bCst_d00_k1500_WL40_ig24_act_TTC_GRF.mot
datacolumns 19
datarows 15
range 0.6025585212 0.7712749071
endheader
time 	ground_force_vx	ground_force_vy	ground_force_vz	ground_force_px	ground_force_py	ground_force_pz	1_ground_force_vx	1_ground_force_vy	1_ground_force_vz	1_ground_force_px	1_ground_force_py	1_ground_force_pz	ground_torque_x	ground_torque_y	ground_torque_z	1_ground_torque_x	1_ground_torque_y	1_ground_torque_z
        0.6025585212	       52.2320600071	      289.0002898028	        3.4733739452	        0.4040328384	        0.0000000000	        0.0241805743	      -49.1798877367	       34.9195073330	      -10.4397781147	        0.9193261991	        0.0000000000	       -0.0565492178	        0.0000000000	        0.0000000000	        0.0000000000	        0.0000000000	        0.0000000000	        0.0000000000	
        0.6146096916	       31.5677047529	      207.3767000527	        9.0990813901	        0.4142335664	        0.0000000000	        0.0179967443	     -120.2420931149	      103.5854664661	      -30.6108913218	        0.9304248640	        0.0000000000	       -0.0542026705	        0.0000000000	        0.0000000000	        0.0000000000	        0.0000000000	        0.0000000000	        0.0000000000	
        0.6266608620	       23.5743542820	      165.9229560851	       15.6048626921	        0.4148213834	        0.0000000000	        0.0179635869	     -102.0372041842	      259.3135002963	      -32.8656684437	        0.9382417726	        0.0000000000	       -0.0526248206	        0.0000000000	        0.0000000000	        0.0000000000	        0.0000000000	        0.0000000000	        0.0000000000	
        0.6387120325	       20.8515610479	      115.7082000748	       11.4046088345	        0.4153530080	        0.0000000000	        0.0177264806	      -68.9951084056	      516.3636131663	        1.3855975138	        0.9435908259	        0.0000000000	       -0.0523148055	        0.0000000000	        0.0000000000	        0.0000000000	        0.0000000000	        0.0000000000	        0.0000000000	
        0.6507632029	        9.0791718930	       59.3341587896	        7.3393041926	        0.4153824224	        0.0000000000	        0.0176674487	      -99.2921294739	      802.6101260458	       21.7796746999	        0.9544013332	        0.0000000000	       -0.0543558405	        0.0000000000	        0.0000000000	        0.0000000000	        0.0000000000	        0.0000000000	        0.0000000000	
        0.6628143733	       -2.0394328998	        8.2948984546	        1.4061337247	        0.0000000000	        0.0000000000	        0.0000000000	     -135.9077401484	      948.3129596557	       28.2061679222	        0.9620681237	        0.0000000000	       -0.0558589344	        0.0000000000	        0.0000000000	        0.0000000000	        0.0000000000	        0.0000000000	        0.0000000000	
        0.6748655437	        0.0163678248	       -0.0150805621	        0.0006965495	        0.0000000000	        0.0000000000	        0.0000000000	     -146.7237813574	      979.2915541767	       30.7968186512	        0.9677649390	        0.0000000000	       -0.0568005598	        0.0000000000	        0.0000000000	        0.0000000000	        0.0000000000	        0.0000000000	        0.0000000000	
        0.6869167142	        0.0165215072	       -0.0115470566	        0.0017986683	        0.0000000000	        0.0000000000	        0.0000000000	     -140.3796652365	      953.0931745337	       28.4894135754	        0.9724958149	        0.0000000000	       -0.0572048283	        0.0000000000	        0.0000000000	        0.0000000000	        0.0000000000	        0.0000000000	        0.0000000000	
        0.6989678846	        0.0240662383	       -0.0145737023	        0.0025870177	        0.0000000000	        0.0000000000	        0.0000000000	     -121.4560931656	      887.4349475327	       25.1912349894	        0.9770805513	        0.0000000000	       -0.0570727993	        0.0000000000	        0.0000000000	        0.0000000000	        0.0000000000	        0.0000000000	        0.0000000000	
        0.7110190550	       -0.0664510068	        0.0382401391	       -0.0065252267	        0.0000000000	        0.0000000000	        0.0000000000	     -106.1766029765	      817.4731229558	       22.3453930477	        0.9825007194	        0.0000000000	       -0.0567104856	        0.0000000000	        0.0000000000	        0.0000000000	        0.0000000000	        0.0000000000	        0.0000000000	
        0.7230702254	       -0.2175285571	        0.1181862949	       -0.0192877643	        0.0000000000	        0.0000000000	        0.0000000000	      -92.4804127536	      758.9286899687	       21.5851261516	        0.9876238534	        0.0000000000	       -0.0562454649	        0.0000000000	        0.0000000000	        0.0000000000	        0.0000000000	        0.0000000000	        0.0000000000	
        0.7351213959	       -0.1118616817	        0.0585842099	       -0.0092109803	        0.0000000000	        0.0000000000	        0.0000000000	      -80.4095911242	      711.7880195931	       21.3353059502	        0.9921892368	        0.0000000000	       -0.0558593431	        0.0000000000	        0.0000000000	        0.0000000000	        0.0000000000	        0.0000000000	        0.0000000000	
        0.7471725663	       -0.0636594532	        0.0325378818	       -0.0047822948	        0.0000000000	        0.0000000000	        0.0000000000	      -70.0886830023	      676.5106987433	       21.7478448488	        0.9963257723	        0.0000000000	       -0.0555665056	        0.0000000000	        0.0000000000	        0.0000000000	        0.0000000000	        0.0000000000	        0.0000000000	
        0.7592237367	       -0.0412871912	        0.0206156094	       -0.0030353140	        0.0000000000	        0.0000000000	        0.0000000000	      -60.5246205897	      650.7038822589	       22.5397350051	        1.0002215019	        0.0000000000	       -0.0553478932	        0.0000000000	        0.0000000000	        0.0000000000	        0.0000000000	        0.0000000000	        0.0000000000	
        0.7712749071	       -0.0341426701	        0.0166131820	       -0.0024963341	        0.0000000000	        0.0000000000	        0.0000000000	      -51.5121495129	      629.9519458815	       22.9783473172	        1.0040214519	        0.0000000000	       -0.0551878690	        0.0000000000	        0.0000000000	        0.0000000000	        0.0000000000	        0.0000000000	        0.0000000000	
